<svg xmlns="http://www.w3.org/2000/svg" viewBox="0 0 1280 320" width="1280" height="320" role="img" aria-label="duplicacy-mcp: Let your AI check your backups"><title>duplicacy-mcp: Let your AI check your backups</title><defs><clipPath id="c"><rect width="1280" height="320" rx="18"/></clipPath></defs><g clip-path="url(#c)"><rect width="1280" height="320" fill="#0e1117"/><defs><path id="jbm591" d="M461 -110Q404 -110 362 -90Q319 -69 296 -30Q274 8 278 61L288 220Q290 266 271 288Q252 311 196 311H82V409H196Q252 409 271 431Q290 453 288 500L278 660Q275 713 297 752Q319 790 361 810Q403 830 461 830H518V732H470Q429 732 406 713Q383 694 385 654L395 494Q399 432 362 395Q325 358 258 358V363Q324 363 362 326Q399 288 395 226L385 66Q384 28 406 8Q429 -12 470 -12H518V-110Z"/><path id="jbm615" d="M362 430 350 619V730H462V619L450 430ZM151 430 138 619V730H250V619L239 430Z"/><path id="jbm259" d="M84 -180V-80H222Q277 -80 308 -50Q339 -20 339 35V451H114V550H447V34Q447 -65 387 -122Q327 -180 225 -180ZM388 645Q353 645 332 664Q311 682 311 713Q311 745 332 764Q353 782 388 782Q423 782 444 764Q465 745 465 713Q465 682 444 664Q423 645 388 645Z"/><path id="jbm312" d="M281 -9Q222 -9 178 10Q133 29 108 62Q82 96 78 142H186Q190 115 215 98Q240 82 281 82H324Q373 82 398 102Q423 122 423 155Q423 187 400 206Q378 224 334 230L263 241Q175 255 134 292Q92 328 92 400Q92 476 142 518Q191 559 288 559H326Q412 559 464 520Q515 480 522 414H414Q410 438 388 453Q365 468 326 468H288Q241 468 220 450Q198 433 198 399Q198 369 217 354Q236 339 276 333L349 321Q442 308 486 270Q529 231 529 158Q529 79 478 35Q426 -9 324 -9Z"/><path id="jbm279" d="M300 -9Q232 -9 182 17Q132 43 105 91Q78 139 78 204V346Q78 412 105 460Q132 507 182 533Q232 559 300 559Q368 559 418 533Q468 507 495 460Q522 412 522 346V204Q522 139 495 91Q468 43 418 17Q368 -9 300 -9ZM300 86Q355 86 385 116Q415 147 415 204V346Q415 404 385 434Q355 464 300 464Q246 464 216 434Q185 404 185 346V204Q185 147 216 116Q246 86 300 86Z"/><path id="jbm272" d="M84 0V550H191V445H217L191 420Q191 486 230 523Q269 560 338 560Q420 560 469 508Q518 455 518 366V0H410V354Q410 408 381 437Q352 466 302 466Q251 466 222 436Q192 405 192 347V0Z"/><path id="jbm308" d="M102 0V550H206V445H232L199 380Q199 469 238 514Q277 560 354 560Q442 560 494 506Q545 451 545 356V319H434V347Q434 406 404 438Q375 469 322 469Q269 469 240 437Q210 405 210 347V0Z"/><path id="jbm305" d="M84 -180V550H191V445H214L191 420Q191 485 232 522Q272 560 340 560Q423 560 472 504Q522 449 522 353V198Q522 134 500 88Q477 41 436 16Q396 -10 340 -10Q273 -10 232 28Q191 65 191 130L214 105H189L192 -23V-180ZM303 84Q356 84 386 114Q415 145 415 203V347Q415 405 386 436Q356 466 303 466Q252 466 222 434Q192 403 192 347V203Q192 147 222 116Q252 84 303 84Z"/><path id="jbm206" d="M304 -10Q236 -10 184 16Q133 41 106 90Q78 138 78 203V347Q78 413 106 461Q133 509 184 534Q236 560 304 560Q403 560 463 508Q523 456 526 366H418Q415 413 385 439Q355 465 304 465Q249 465 217 434Q185 404 185 348V203Q185 147 217 116Q249 85 304 85Q355 85 385 111Q415 137 418 184H526Q523 94 463 42Q403 -10 304 -10Z"/><path id="jbm573" d="M300 401Q261 401 236 423Q212 445 212 481Q212 517 236 538Q261 560 300 560Q340 560 364 538Q388 517 388 481Q388 445 364 423Q340 401 300 401ZM300 -10Q261 -10 236 12Q212 34 212 69Q212 106 236 128Q261 149 300 149Q340 149 364 128Q388 106 388 69Q388 34 364 12Q340 -10 300 -10Z"/><path id="jbm680" d=""/><path id="jbm538" d="M85 0V107L311 340Q363 394 388 438Q412 481 412 524Q412 580 382 612Q351 644 298 644Q240 644 206 610Q173 577 173 519H65Q67 587 96 636Q125 686 177 713Q229 740 299 740Q366 740 416 714Q466 688 493 641Q520 594 520 530Q520 465 486 403Q453 341 377 265L212 98H531V0Z"/><path id="jbm571" d="M300 -10Q260 -10 236 14Q212 37 212 77Q212 118 236 142Q260 167 300 167Q341 167 364 142Q388 118 388 77Q388 37 364 14Q341 -10 300 -10Z"/><path id="jbm536" d="M300 -10Q231 -10 180 17Q130 44 102 92Q74 141 74 206V524Q74 590 102 638Q129 686 180 713Q231 740 300 740Q370 740 420 713Q471 686 498 638Q526 590 526 524V206Q526 141 498 92Q470 44 420 17Q369 -10 300 -10ZM300 83Q356 83 390 117Q423 151 423 206V524Q423 579 390 613Q356 647 300 647Q244 647 210 613Q177 579 177 524V206Q177 151 210 117Q244 83 300 83ZM300 303Q272 303 254 321Q237 339 237 368Q237 396 254 414Q272 431 300 431Q328 431 346 414Q363 396 363 368Q363 339 346 321Q328 303 300 303Z"/><path id="jbm572" d="M158 -160 238 151H382L252 -160Z"/><path id="jbm216" d="M300 -10Q233 -10 182 16Q132 43 105 91Q78 139 78 203V347Q78 412 105 460Q132 507 182 534Q233 560 300 560Q368 560 418 534Q468 507 495 460Q522 412 522 347V249H182V203Q182 142 212 110Q243 78 301 78Q348 78 377 94Q406 111 413 143H520Q508 73 448 32Q388 -10 300 -10ZM418 314V348Q418 408 388 441Q358 474 300 474Q243 474 212 441Q182 408 182 347V322L426 323Z"/><path id="jbm325" d="M299 -10Q200 -10 141 48Q82 105 82 204V550H190V204Q190 147 219 116Q248 84 299 84Q351 84 380 116Q410 147 410 204V550H518V204Q518 105 458 48Q399 -10 299 -10Z"/><path id="jbm265" d="M379 0Q328 0 290 20Q252 41 230 79Q209 117 209 167V632H29V730H317V167Q317 135 335 116Q353 98 384 98H554V0Z"/><path id="jbm320" d="M360 0Q285 0 243 41Q201 82 201 155V452H49V550H201V705H309V550H524V452H309V155Q309 98 364 98H514V0Z"/><path id="jbm344" d="M229 0 47 550H157L270 198Q281 167 290 136Q298 104 302 86Q307 104 316 136Q324 167 333 198L444 550H553L371 0Z"/><path id="jbm66" d="M98 0V96H245V634H98V730H502V634H355V96H502V0Z"/><path id="jbm235" d="M213 0V394H57V492H213V581Q213 650 257 690Q301 730 377 730H538V634H379Q351 634 336 620Q320 606 320 580V492H538V394H320V0Z"/><path id="jbx615" d="M356 430 342 570V730H490V570L477 430ZM124 430 110 570V730H258V570L245 430Z"/><path id="jbx272" d="M66 0V550H211V445H255L211 410Q211 480 251 520Q291 560 359 560Q439 560 488 504Q536 448 536 355V0H386V340Q386 383 364 406Q341 430 300 430Q260 430 238 406Q216 383 216 340V0Z"/><path id="jbx180" d="M229 -10Q146 -10 98 35Q49 80 49 157Q49 240 106 284Q164 329 272 329H386V370Q386 402 364 421Q341 440 303 440Q268 440 245 424Q222 408 217 380H72Q81 463 144 512Q208 560 308 560Q413 560 474 508Q536 457 536 370V0H391V90H367L392 125Q392 63 348 26Q303 -10 229 -10ZM285 100Q329 100 358 124Q386 147 386 185V244H275Q241 244 220 224Q199 205 199 173Q199 139 222 120Q245 100 285 100Z"/><path id="jbx271" d="M42 0V550H160V470H184L165 456Q165 503 192 532Q219 560 259 560Q302 560 326 523Q350 486 350 425L332 470H360L351 456Q351 503 377 532Q403 560 447 560Q497 560 528 522Q559 485 559 420V0H430V410Q430 433 420 446Q410 458 391 458Q372 458 362 446Q352 433 352 410V0H249V410Q249 433 239 446Q229 458 210 458Q191 458 181 446Q171 433 171 410V0Z"/><path id="jbx216" d="M301 -10Q228 -10 174 18Q119 45 90 94Q60 144 60 210V340Q60 406 90 456Q119 505 174 532Q228 560 301 560Q374 560 428 532Q481 505 510 456Q540 406 540 340V240H203V210Q203 158 228 132Q253 105 303 105Q338 105 360 117Q381 129 388 150H535Q517 78 454 34Q390 -10 301 -10ZM397 317V342Q397 393 374 420Q350 447 301 447Q252 447 228 419Q203 391 203 340V325L407 327Z"/><path id="jbx573" d="M300 380Q255 380 228 405Q200 430 200 470Q200 511 228 536Q255 560 300 560Q345 560 372 536Q400 511 400 470Q400 430 372 405Q345 380 300 380ZM300 -10Q255 -10 228 15Q200 40 200 80Q200 121 228 146Q255 170 300 170Q345 170 372 146Q400 121 400 80Q400 40 372 15Q345 -10 300 -10Z"/><path id="jbx680" d=""/><path id="jbx212" d="M243 -10Q160 -10 110 48Q60 106 60 205V345Q60 443 110 502Q160 560 243 560Q311 560 350 520Q389 481 389 410L354 445H389L384 580V730H534V0H389V105H354L389 140Q389 69 350 30Q311 -10 243 -10ZM297 120Q338 120 361 144Q384 167 384 210V340Q384 383 361 406Q338 430 297 430Q255 430 232 406Q210 383 210 340V210Q210 167 232 144Q255 120 297 120Z"/><path id="jbx325" d="M300 -10Q189 -10 126 50Q64 110 64 214V550H214V215Q214 169 236 144Q258 120 300 120Q341 120 364 144Q386 169 386 215V550H536V214Q536 109 473 50Q410 -10 300 -10Z"/><path id="jbx305" d="M66 -180V550H211V445H246L211 410Q211 481 250 520Q289 560 357 560Q440 560 490 502Q540 443 540 345V205Q540 140 518 92Q495 43 454 16Q413 -10 357 -10Q289 -10 250 30Q211 69 211 140L246 105H211L216 -30V-180ZM303 120Q345 120 368 144Q390 167 390 210V340Q390 384 368 407Q345 430 303 430Q262 430 239 406Q216 383 216 340V210Q216 167 239 144Q262 120 303 120Z"/><path id="jbx265" d="M390 0Q332 0 288 24Q244 49 220 93Q195 137 195 195V595H25V730H345V195Q345 168 362 152Q378 135 405 135H565V0Z"/><path id="jbx246" d="M70 0V136H260V415H95V550H400V136H560V0ZM320 637Q279 637 254 658Q230 679 230 715Q230 751 254 772Q279 793 320 793Q361 793 386 772Q410 751 410 715Q410 679 386 658Q361 637 320 637Z"/><path id="jbx206" d="M303 -10Q230 -10 175 18Q120 45 90 94Q60 144 60 210V340Q60 407 90 456Q120 505 175 532Q230 560 303 560Q412 560 477 505Q542 450 546 355H396Q393 390 368 410Q344 430 303 430Q258 430 234 407Q210 384 210 340V210Q210 167 234 144Q258 120 303 120Q344 120 368 140Q393 159 396 195H546Q542 100 477 45Q412 -10 303 -10Z"/><path id="jbx351" d="M157 -180 232 27 26 550H189L272 310Q281 283 290 244Q300 206 305 182Q310 206 320 244Q329 283 338 310L418 550H574L314 -180Z"/><path id="jbx599" d="M140 260V400H460V260Z"/><path id="jbx572" d="M140 -160 220 151H400L270 -160Z"/><path id="jbm246" d="M81 0V98H274V452H106V550H379V98H556V0ZM316 645Q281 645 260 664Q239 682 239 713Q239 745 260 764Q281 782 316 782Q351 782 372 764Q393 745 393 713Q393 682 372 664Q351 645 316 645Z"/><path id="jbm82" d="M109 0V730H217V99H536V0Z"/><path id="jbm351" d="M172 -180 251 32 46 550H165L280 240Q287 220 294 192Q301 164 306 146Q310 164 317 192Q324 220 331 240L439 550H554L286 -180Z"/><path id="jbm1" d="M43 0 229 730H371L557 0H448L404 185H197L153 0ZM217 274H383L333 485Q320 541 312 582Q303 624 300 639Q297 624 289 582Q281 541 267 486Z"/><path id="jbm243" d="M84 0V730H192V550L191 445H217L191 420Q191 486 230 523Q269 560 338 560Q420 560 469 508Q518 455 518 366V0H410V354Q410 408 381 438Q352 468 302 468Q251 468 222 436Q192 405 192 347V0Z"/><path id="jbm262" d="M87 0V730H195V329H292L438 550H560L385 286L563 0H439L292 236H195V0Z"/><path id="jbm205" d="M339 -10Q271 -10 231 28Q191 65 191 130L214 105H191V0H84V730H192V573L189 445H214L191 420Q191 485 232 522Q272 560 339 560Q422 560 472 504Q522 448 522 352V197Q522 102 472 46Q422 -10 339 -10ZM302 84Q355 84 385 114Q415 145 415 203V347Q415 405 385 436Q355 466 302 466Q251 466 222 434Q192 403 192 347V203Q192 147 222 116Q251 84 302 84Z"/><path id="jbm180" d="M245 -10Q159 -10 110 34Q60 79 60 156Q60 234 112 278Q165 323 257 323H410V374Q410 419 382 444Q354 469 303 469Q258 469 228 450Q198 430 193 398H87Q96 472 156 516Q215 560 306 560Q404 560 461 510Q518 461 518 376V0H413V101H395L413 121Q413 61 367 26Q321 -10 245 -10ZM277 73Q335 73 372 102Q410 132 410 178V250H259Q217 250 192 227Q168 204 168 164Q168 122 197 98Q226 73 277 73Z"/><path id="jbm592" d="M82 -110V-12H130Q171 -12 194 8Q217 28 215 66L205 226Q201 288 238 326Q276 363 342 363V358Q275 358 238 395Q201 432 205 494L215 654Q217 694 194 713Q172 732 130 732H82V830H139Q197 830 239 810Q281 790 304 752Q326 713 322 660L312 500Q310 453 330 431Q349 409 404 409H518V311H404Q349 311 330 288Q310 266 312 220L322 61Q326 8 304 -30Q281 -69 239 -90Q197 -110 139 -110Z"/></defs><g fill="#6e7a8a" transform="translate(96 70) scale(0.022 -0.022)"><use href="#jbm591" x="0"/><use href="#jbm615" x="600"/><use href="#jbm259" x="1200"/><use href="#jbm312" x="1800"/><use href="#jbm279" x="2400"/><use href="#jbm272" x="3000"/><use href="#jbm308" x="3600"/><use href="#jbm305" x="4200"/><use href="#jbm206" x="4800"/><use href="#jbm615" x="5400"/><use href="#jbm573" x="6000"/></g><g fill="#4b5563" transform="translate(254.4 70) scale(0.022 -0.022)"><use href="#jbm615" x="0"/><use href="#jbm538" x="600"/><use href="#jbm571" x="1200"/><use href="#jbm536" x="1800"/><use href="#jbm615" x="2400"/></g><g fill="#6e7a8a" transform="translate(320.4 70) scale(0.022 -0.022)"><use href="#jbm572" x="0"/><use href="#jbm615" x="1200"/><use href="#jbm308" x="1800"/><use href="#jbm216" x="2400"/><use href="#jbm312" x="3000"/><use href="#jbm325" x="3600"/><use href="#jbm265" x="4200"/><use href="#jbm320" x="4800"/><use href="#jbm615" x="5400"/><use href="#jbm573" x="6000"/><use href="#jbm591" x="7200"/><use href="#jbm615" x="7800"/><use href="#jbm312" x="8400"/><use href="#jbm216" x="9000"/><use href="#jbm308" x="9600"/><use href="#jbm344" x="10200"/><use href="#jbm216" x="10800"/><use href="#jbm308" x="11400"/><use href="#jbm66" x="12000"/><use href="#jbm272" x="12600"/><use href="#jbm235" x="13200"/><use href="#jbm279" x="13800"/><use href="#jbm615" x="14400"/><use href="#jbm573" x="15000"/><use href="#jbm591" x="16200"/></g><g fill="#F2A93B" transform="translate(132 168) scale(0.07 -0.07)"><use href="#jbx615" x="0"/><use href="#jbx272" x="600"/><use href="#jbx180" x="1200"/><use href="#jbx271" x="1800"/><use href="#jbx216" x="2400"/><use href="#jbx615" x="3000"/></g><g fill="#6e7a8a" transform="translate(384 168) scale(0.07 -0.07)"><use href="#jbx573" x="0"/></g><g fill="#ffffff" transform="translate(468 168) scale(0.07 -0.07)"><use href="#jbx615" x="0"/><use href="#jbx212" x="600"/><use href="#jbx325" x="1200"/><use href="#jbx305" x="1800"/><use href="#jbx265" x="2400"/><use href="#jbx246" x="3000"/><use href="#jbx206" x="3600"/><use href="#jbx180" x="4200"/><use href="#jbx206" x="4800"/><use href="#jbx351" x="5400"/><use href="#jbx599" x="6000"/><use href="#jbx271" x="6600"/><use href="#jbx206" x="7200"/><use href="#jbx305" x="7800"/><use href="#jbx615" x="8400"/></g><g fill="#6e7a8a" transform="translate(1098 168) scale(0.07 -0.07)"><use href="#jbx572" x="0"/></g><g fill="#F2A93B" transform="translate(132 230) scale(0.03 -0.03)"><use href="#jbm615" x="0"/><use href="#jbm320" x="600"/><use href="#jbm246" x="1200"/><use href="#jbm320" x="1800"/><use href="#jbm265" x="2400"/><use href="#jbm216" x="3000"/><use href="#jbm615" x="3600"/></g><g fill="#6e7a8a" transform="translate(258 230) scale(0.03 -0.03)"><use href="#jbm573" x="0"/></g><g fill="#7ee0c3" transform="translate(294 230) scale(0.03 -0.03)"><use href="#jbm615" x="0"/><use href="#jbm82" x="600"/><use href="#jbm216" x="1200"/><use href="#jbm320" x="1800"/><use href="#jbm351" x="3000"/><use href="#jbm279" x="3600"/><use href="#jbm325" x="4200"/><use href="#jbm308" x="4800"/><use href="#jbm1" x="6000"/><use href="#jbm66" x="6600"/><use href="#jbm206" x="7800"/><use href="#jbm243" x="8400"/><use href="#jbm216" x="9000"/><use href="#jbm206" x="9600"/><use href="#jbm262" x="10200"/><use href="#jbm351" x="11400"/><use href="#jbm279" x="12000"/><use href="#jbm325" x="12600"/><use href="#jbm308" x="13200"/><use href="#jbm205" x="14400"/><use href="#jbm180" x="15000"/><use href="#jbm206" x="15600"/><use href="#jbm262" x="16200"/><use href="#jbm325" x="16800"/><use href="#jbm305" x="17400"/><use href="#jbm312" x="18000"/><use href="#jbm615" x="18600"/></g><g fill="#6e7a8a" transform="translate(96 282) scale(0.022 -0.022)"><use href="#jbm592" x="0"/><use href="#jbm592" x="600"/><use href="#jbm592" x="1200"/></g></g></svg>
